<svg width="1440" height="1024" viewBox="0 0 1440 1024" fill="none" xmlns="http://www.w3.org/2000/svg">
<g clip-path="url(#clip0_0:1)">
<ellipse cx="403.5" cy="898.5" rx="514.5" ry="331.5" fill="#5A9734"/>
<ellipse cx="848.5" cy="898.5" rx="377.5" ry="248.5" fill="#5A9734"/>
<ellipse cx="1353.5" cy="899" rx="293.5" ry="228" fill="#5A9734"/>
<ellipse cx="714" cy="1061" rx="437" ry="264" fill="#84B851"/>
<ellipse cx="142" cy="952" rx="387" ry="231" fill="#84B851"/>
<ellipse cx="1259" cy="1024" rx="353" ry="201" fill="#84B851"/>
<rect x="1096" y="620" width="27" height="142" fill="#4A3808"/>
<ellipse rx="35.2448" ry="33.7615" transform="matrix(0.999963 0.00860994 -0.00928944 0.999957 1066.56 631.524)" fill="#65B341"/>
<ellipse cx="1117.63" cy="653.254" rx="35.9923" ry="25.254" fill="#65B341"/>
<ellipse cx="1117.63" cy="617.722" rx="32.9421" ry="26.7222" fill="#65B341"/>
<ellipse cx="1066.69" cy="668.524" rx="24.7066" ry="19.9683" fill="#65B341"/>
<ellipse rx="19.4123" ry="13.5888" transform="matrix(0.925963 -0.377613 0.402733 0.915317 1161.2 633.673)" fill="#65B341"/>
<ellipse cx="1114.27" cy="675.278" rx="29.5869" ry="26.7222" fill="#65B341"/>
<ellipse cx="1163.38" cy="665.294" rx="25.6216" ry="20.8492" fill="#65B341"/>
<rect x="353" y="565" width="27" height="142" fill="#4A3808"/>
<ellipse rx="46.8445" ry="46.536" transform="matrix(0.99996 0.00892905 -0.00895746 0.99996 308.259 549.857)" fill="#65B341"/>
<ellipse cx="376.135" cy="579.81" rx="47.8378" ry="34.8095" fill="#65B341"/>
<ellipse cx="376.135" cy="530.833" rx="43.7838" ry="36.8333" fill="#65B341"/>
<ellipse cx="308.432" cy="600.857" rx="32.8378" ry="27.5238" fill="#65B341"/>
<ellipse rx="25.9397" ry="18.6236" transform="matrix(0.921019 -0.389518 0.390569 0.920574 434.057 552.82)" fill="#65B341"/>
<ellipse cx="371.676" cy="610.167" rx="39.3243" ry="36.8333" fill="#65B341"/>
<ellipse cx="436.946" cy="596.405" rx="34.0541" ry="28.7381" fill="#65B341"/>
<rect x="767" y="587" width="19" height="103" fill="#4A3808"/>
<ellipse rx="25.2066" ry="22.5078" transform="matrix(0.999968 0.00802582 -0.00996551 0.99995 745.43 572.016)" fill="#65B341"/>
<ellipse cx="781.954" cy="586.503" rx="25.7413" ry="16.836" fill="#65B341"/>
<ellipse cx="781.954" cy="562.815" rx="23.5598" ry="17.8148" fill="#65B341"/>
<ellipse cx="745.523" cy="596.683" rx="17.6699" ry="13.3122" fill="#65B341"/>
<ellipse rx="13.7531" ry="9.16936" transform="matrix(0.934741 -0.35533 0.426855 0.90432 813.121 573.449)" fill="#65B341"/>
<ellipse cx="779.554" cy="601.185" rx="21.1602" ry="17.8148" fill="#65B341"/>
<ellipse cx="814.676" cy="594.529" rx="18.3243" ry="13.8995" fill="#65B341"/>
<rect x="1056" y="571.957" width="5" height="42" fill="#FAFF1D"/>
<ellipse cx="1072" cy="555.957" rx="52" ry="34" fill="#0C0C0C"/>
<path d="M1150.16 496.498L1130.05 515.583L1123.11 502.596L1150.16 496.498Z" fill="#FFAF83"/>
<path d="M1147.18 529.807L1122.45 517.276L1132.35 506.38L1147.18 529.807Z" fill="#FFAF83"/>
<ellipse cx="1105" cy="510.457" rx="27" ry="20.5" fill="#0C0B0B"/>
<rect x="1078" y="585.957" width="5" height="42" fill="#FAFF1D"/>
<ellipse cx="1108.5" cy="508.5" rx="9.5" ry="8.5" fill="#378FF8"/>
<ellipse cx="1111.5" cy="510.5" rx="6.5" ry="5.5" fill="#413F3F"/>
<path d="M1007.44 507.588L1065.8 529.35L1026.93 566.743L1007.44 507.588Z" fill="#0C0C0C"/>
</g>
<defs>
<clipPath id="clip0_0:1">
<rect width="1440" height="1024" fill="white"/>
</clipPath>
</defs>
</svg>
