<svg width="1440" height="1024" viewBox="0 0 1440 1024" fill="none" xmlns="http://www.w3.org/2000/svg">
<g clip-path="url(#clip0_0:1)">
<ellipse cx="1310.5" cy="1140" rx="293.5" ry="228" fill="#5A9734"/>
<rect x="1162" y="855" width="27" height="142" fill="#4A3808"/>
<ellipse rx="35.2448" ry="33.7615" transform="matrix(0.999963 0.00860994 -0.00928944 0.999957 1128.56 827.524)" fill="#65B341"/>
<ellipse cx="1179.63" cy="849.254" rx="35.9923" ry="25.254" fill="#65B341"/>
<ellipse cx="1179.63" cy="813.722" rx="32.9421" ry="26.7222" fill="#65B341"/>
<ellipse cx="1128.69" cy="864.524" rx="24.7066" ry="19.9683" fill="#65B341"/>
<ellipse rx="19.4123" ry="13.5888" transform="matrix(0.925963 -0.377613 0.402733 0.915317 1223.2 829.673)" fill="#65B341"/>
<ellipse cx="1176.27" cy="871.278" rx="29.5869" ry="26.7222" fill="#65B341"/>
<ellipse cx="1225.38" cy="861.294" rx="25.6216" ry="20.8492" fill="#65B341"/>
<ellipse cx="492.5" cy="1238" rx="514.5" ry="316" fill="#5A9734"/>
<ellipse cx="979.5" cy="1140.88" rx="377.5" ry="236.881" fill="#5A9734"/>
<rect x="592" y="842" width="19" height="103" fill="#4A3808"/>
<ellipse rx="25.2066" ry="22.5078" transform="matrix(0.999968 0.00802582 -0.00996551 0.99995 571.43 858.016)" fill="#65B341"/>
<ellipse cx="607.954" cy="872.503" rx="25.7413" ry="16.836" fill="#65B341"/>
<ellipse cx="607.954" cy="848.815" rx="23.5598" ry="17.8148" fill="#65B341"/>
<ellipse cx="571.523" cy="882.683" rx="17.6699" ry="13.3122" fill="#65B341"/>
<ellipse rx="13.7531" ry="9.16936" transform="matrix(0.934741 -0.35533 0.426855 0.90432 639.121 859.449)" fill="#65B341"/>
<ellipse cx="605.554" cy="887.185" rx="21.1602" ry="17.8148" fill="#65B341"/>
<ellipse cx="640.676" cy="880.529" rx="18.3243" ry="13.8995" fill="#65B341"/>
<ellipse cx="1251" cy="1149" rx="353" ry="201" fill="#84B851"/>
<ellipse cx="106" cy="1153" rx="387" ry="231" fill="#84B851"/>
<ellipse cx="706" cy="1186" rx="437" ry="264" fill="#84B851"/>
<rect x="217" y="846" width="27" height="142" fill="#4A3808"/>
<ellipse rx="46.8445" ry="46.536" transform="matrix(0.99996 0.00892905 -0.00895746 0.99996 172.259 830.857)" fill="#65B341"/>
<ellipse cx="240.135" cy="860.81" rx="47.8378" ry="34.8095" fill="#65B341"/>
<ellipse cx="240.135" cy="811.833" rx="43.7838" ry="36.8333" fill="#65B341"/>
<ellipse cx="172.432" cy="881.857" rx="32.8378" ry="27.5238" fill="#65B341"/>
<ellipse rx="25.9397" ry="18.6236" transform="matrix(0.921019 -0.389518 0.390569 0.920574 298.057 833.82)" fill="#65B341"/>
<ellipse cx="235.676" cy="891.167" rx="39.3243" ry="36.8333" fill="#65B341"/>
<ellipse cx="300.946" cy="877.405" rx="34.0541" ry="28.7381" fill="#65B341"/>
</g>
<defs>
<clipPath id="clip0_0:1">
<rect width="1440" height="1024" fill="white"/>
</clipPath>
</defs>
</svg>
