<svg id="stars" width="1440" height="1024" viewBox="0 0 1440 1024" fill="none" xmlns="http://www.w3.org/2000/svg">
<g clip-path="url(#clip0_2:2)">
<circle cx="174.504" cy="274.336" r="0.5" fill="white"/>
<circle class="s1" cx="1020.82" cy="349.673" r="0.5" fill="white"/>
<circle class="s2" cx="1296.07" cy="477.479" r="0.5" fill="white"/>
<circle cx="961.224" cy="193.493" r="0.5" fill="white"/>
<ellipse class="s1" cx="743.996" cy="94.5308" rx="3.25091" ry="3.10934" fill="white"/>
<ellipse cx="313.793" cy="400.282" rx="3.25091" ry="3.10934" fill="white"/>
<ellipse class="s2" cx="1086.43" cy="134.952" rx="3.25091" ry="3.10934" fill="white"/>
<ellipse class="s1" cx="164.251" cy="502.891" rx="3.25091" ry="3.10934" fill="white"/>
<circle cx="1347.5" cy="274.836" r="1" fill="white"/>
<ellipse cx="1273.89" cy="147.39" rx="3.25091" ry="3.10934" fill="white"/>
<ellipse class="s1" cx="570.615" cy="208.54" rx="3.25091" ry="3.10934" fill="white"/>
<ellipse cx="190.258" cy="54.1093" rx="3.25091" ry="3.10934" fill="white"/>
<ellipse class="s2" cx="422.156" cy="60.328" rx="3.25091" ry="3.10934" fill="white"/>
<ellipse class="s1" cx="606.375" cy="417.72" rx="3.25091" ry="3.10934" fill="white"/>
<ellipse cx="837.189" cy="323.585" rx="3.25091" ry="3.10934" fill="white"/>
<ellipse cx="104.273" cy="333.38" rx="3.65455" ry="3.23918" fill="white"/>
<ellipse class="s1" cx="82.6545" cy="195.239" rx="3.65455" ry="3.23918" fill="white"/>
<ellipse class="s2" cx="1365.09" cy="545.007" rx="3.65455" ry="3.23918" fill="white"/>
<ellipse cx="1030.65" cy="297.239" rx="3.65455" ry="3.23918" fill="white"/>
<circle class="s1" cx="851.5" cy="115.5" r="1.5" fill="white"/>
<circle class="s2" cx="437.5" cy="386.5" r="1.5" fill="white"/>
<circle cx="1124.17" cy="183.719" r="1.5" fill="white"/>
<circle class="s1" cx="281.5" cy="298.5" r="1.5" fill="white"/>
<circle cx="1220" cy="377" r="1" fill="white"/>
<circle cx="1334.42" cy="196.175" r="1" fill="white"/>
<circle class="s1" cx="543.818" cy="259.879" r="1" fill="white"/>
<circle class="s2" cx="116.236" cy="99" r="1" fill="white"/>
<circle cx="376.927" cy="105.478" r="1" fill="white"/>
<circle class="s1" cx="584.018" cy="472.585" r="1" fill="white"/>
<circle cx="843.491" cy="379.729" r="1" fill="white"/>
<ellipse cx="385.273" cy="240.38" rx="3.65455" ry="3.23918" fill="white"/>
<ellipse class="s1" cx="363.655" cy="102.239" rx="3.65455" ry="3.23918" fill="white"/>
<ellipse cx="1311.65" cy="204.239" rx="3.65455" ry="3.23918" fill="white"/>
<circle class="s2" cx="1132.5" cy="22.5" r="1.5" fill="white"/>
<circle class="s1" cx="718.5" cy="293.5" r="1.5" fill="white"/>
<circle cx="1405.17" cy="90.7187" r="1.5" fill="white"/>
<circle cx="562.5" cy="205.5" r="1.5" fill="white"/>
<circle class="s1" cx="824.818" cy="166.879" r="1" fill="white"/>
<circle cx="397.236" cy="6" r="1" fill="white"/>
<circle class="s2" cx="657.927" cy="12.4784" r="1" fill="white"/>
<circle class="s1" cx="865.018" cy="379.585" r="1" fill="white"/>
<circle cx="1124.49" cy="286.729" r="1" fill="white"/>
<ellipse class="s2" cx="246.273" cy="373.38" rx="3.65455" ry="3.23918" fill="white"/>
<ellipse cx="224.655" cy="235.239" rx="3.65455" ry="3.23918" fill="white"/>
<ellipse class="s1" cx="1172.65" cy="337.239" rx="3.65455" ry="3.23918" fill="white"/>
<circle cx="993.5" cy="155.5" r="1.5" fill="white"/>
<circle cx="579.5" cy="426.5" r="1.5" fill="white"/>
<circle class="s1" cx="1266.17" cy="223.719" r="1.5" fill="white"/>
<circle class="s2" cx="423.5" cy="338.5" r="1.5" fill="white"/>
<circle cx="1362" cy="417" r="1" fill="white"/>
<circle class="s1" cx="685.818" cy="299.879" r="1" fill="white"/>
<circle cx="258.236" cy="139" r="1" fill="white"/>
<circle cx="518.927" cy="145.478" r="1" fill="white"/>
<circle class="s1" cx="726.018" cy="512.585" r="1" fill="white"/>
<circle cx="985.491" cy="419.729" r="1" fill="white"/>
<ellipse class="s2" cx="1434.77" cy="372.148" rx="0.53122" ry="0.5" transform="rotate(-180 1434.77 372.148)" fill="white"/>
<ellipse cx="389.069" cy="316.5" rx="0.53122" ry="0.5" transform="rotate(-180 389.069 316.5)" fill="white"/>
<ellipse class="s2" cx="50.8198" cy="106.735" rx="1.06244" ry="1" transform="rotate(-180 50.8198 106.735)" fill="white"/>
<ellipse class="s1" cx="245.038" cy="203.961" rx="1.59366" ry="1.5" transform="rotate(-180 245.038 203.961)" fill="white"/>
<ellipse cx="741.198" cy="255.961" rx="1.59366" ry="1.5" transform="rotate(-180 741.198 255.961)" fill="white"/>
<ellipse cx="1343.6" cy="96.9612" rx="0.53122" ry="0.5" transform="rotate(-180 1343.6 96.9612)" fill="white"/>
<ellipse class="s2" cx="549.959" cy="152.961" rx="1.59366" ry="1.5" transform="rotate(-180 549.959 152.961)" fill="white"/>
<ellipse cx="81.5622" cy="540.598" rx="1.06244" ry="1" transform="rotate(-180 81.5622 540.598)" fill="white"/>
<g opacity="0.2">
<ellipse cx="949.037" cy="460.854" rx="1.06244" ry="1" transform="rotate(-180 949.037 460.854)" fill="white"/>
</g>
<ellipse cx="1227.26" cy="304.461" rx="1.06244" ry="1" transform="rotate(-180 1227.26 304.461)" fill="white"/>
<g opacity="0.2">
<ellipse cx="1162.46" cy="519.461" rx="1.06244" ry="1" transform="rotate(-180 1162.46 519.461)" fill="white"/>
</g>
<ellipse cx="987.153" cy="112.461" rx="1.06244" ry="1" transform="rotate(-180 987.153 112.461)" fill="white"/>
<ellipse cx="746.049" cy="448.5" rx="0.53122" ry="0.5" transform="rotate(-180 746.049 448.5)" fill="white"/>
</g>
<defs>
<clipPath id="clip0_2:2">
<rect width="1440" height="1024" fill="white"/>
</clipPath>
</defs>
</svg>
